<?xml version="1.0" encoding="utf-8"?>
<svg version="1.0" width="229.000000pt" height="220.000000pt" viewBox="0 0 229.000000 220.000000" preserveAspectRatio="xMidYMid meet" xmlns="http://www.w3.org/2000/svg">
  <g transform="translate(0.000000,220.000000) scale(0.100000,-0.100000)" fill="#000000" stroke="none">
    <path d="M980 2145 c-80 -30 -164 -62 -187 -71 l-43 -16 0 -168 0 -168 -81 -31 c-125 -48 -123 -48 -182 -9 -110 73 -88 74 -297 -7 l-185 -72 -3 -421 -2 -422 45 -32 c86 -63 1103 -718 1113 -718 18 0 1072 398 1114 421 16 9 18 27 18 179 l0 170 -190 125 -190 124 -2 168 -3 168 -70 47 c-38 25 -124 82 -190 125 l-120 78 -3 170 -3 170 -188 120 c-104 65 -192 120 -197 122 -5 1 -74 -22 -154 -52z m338 -80 c94 -60 171 -113 171 -116 1 -3 -49 -25 -110 -49 -90 -34 -113 -40 -120 -29 -56 92 -117 183 -125 185 -5 2 -35 -33 -67 -76 -39 -53 -63 -77 -71 -72 -82 48 -216 139 -216 144 0 5 6 8 13 8 6 0 82 27 167 60 85 33 162 58 171 57 8 -1 92 -51 187 -112z m-428 -109 c55 -36 100 -68 100 -72 0 -11 -145 -203 -153 -204 -5 0 -22 9 -37 20 l-29 21 -3 154 c-2 118 0 154 9 151 7 -3 57 -34 113 -70z m240 -37 c0 -77 -3 -99 -12 -93 -7 4 -32 20 -55 36 l-43 29 48 64 c26 35 50 64 55 65 4 0 7 -45 7 -101z m82 -81 c-61 -29 -62 -28 -62 79 l0 97 49 -79 50 -80 -37 -17z m298 -66 l0 -159 -37 -11 c-20 -6 -40 -8 -43 -3 -44 67 -151 243 -149 245 6 5 213 85 222 85 4 1 7 -70 7 -157z m-435 63 l55 -36 0 -154 c0 -85 -2 -155 -5 -155 -3 0 -65 39 -139 88 l-133 87 76 102 c42 57 79 103 83 103 4 0 32 -16 63 -35z m266 -128 c51 -82 72 -124 65 -129 -23 -13 -237 -91 -240 -87 -2 2 -6 72 -8 156 l-5 152 51 18 c28 11 53 18 56 15 3 -2 39 -58 81 -125z m-826 -62 l130 -85 -137 0 c-113 0 -138 -3 -138 -14 0 -8 18 -49 41 -90 l41 -76 -27 -10 c-14 -5 -28 -10 -30 -10 -12 0 -366 235 -359 238 161 64 331 130 339 131 6 0 68 -38 140 -84z m302 17 c3 -7 -10 -32 -28 -57 -30 -39 -38 -44 -74 -45 -30 0 -54 9 -93 36 -30 20 -52 37 -50 39 2 2 44 20 93 38 87 33 91 34 119 18 15 -9 30 -22 33 -29z m186 -115 c59 -39 107 -74 107 -78 0 -8 -103 -49 -123 -49 -12 0 -206 123 -210 133 -1 3 13 26 31 51 l34 47 26 -17 c15 -9 75 -48 135 -87z m673 -50 c87 -56 169 -110 182 -118 22 -16 19 -17 -100 -63 -94 -35 -125 -43 -131 -34 -71 112 -177 285 -177 290 0 5 42 25 60 27 3 1 78 -45 166 -102z m-1364 -106 l68 -44 0 -409 0 -409 -22 12 c-13 7 -94 60 -180 117 l-158 105 0 409 0 408 113 -73 c61 -40 142 -92 179 -116z m1136 146 c11 -19 27 -46 37 -60 l17 -27 -75 -34 c-116 -53 -109 -52 -187 -4 -38 24 -69 46 -70 50 0 3 57 29 128 57 70 27 128 50 129 50 0 1 10 -14 21 -32z m-732 -21 l35 -24 -45 -15 c-45 -15 -47 -15 -158 23 l-113 38 123 1 c114 1 126 -1 158 -23z m144 -43 l101 -67 -29 -12 c-24 -10 -39 -8 -90 8 -58 20 -61 22 -64 56 -2 28 -11 41 -37 59 l-34 23 27 0 c16 0 66 -26 126 -67z m-345 17 c96 -31 135 -50 105 -50 -8 0 -45 -12 -82 -27 -38 -14 -70 -24 -72 -22 -21 25 -76 141 -65 137 8 -3 59 -20 114 -38z m242 -56 c-2 -2 -19 1 -38 8 l-33 11 34 12 c32 11 35 10 38 -7 2 -11 2 -22 -1 -24z m391 -57 l-3 -66 -74 46 -74 46 69 27 c38 15 73 24 77 20 4 -4 7 -37 5 -73z m-435 47 l47 -16 0 -207 0 -207 -36 -13 c-19 -7 -37 -11 -38 -9 -2 1 -29 53 -61 113 -31 61 -78 149 -103 197 -26 48 -44 89 -42 91 8 6 164 65 176 66 6 1 31 -6 57 -15z m525 -30 l57 -37 -54 -23 c-29 -13 -57 -24 -62 -24 -5 0 -9 27 -9 60 0 33 2 60 5 60 3 0 32 -16 63 -36z m329 -48 l52 -85 -48 -16 -48 -16 -92 58 c-50 32 -91 61 -91 64 0 6 149 77 165 78 6 1 34 -37 62 -83z m-727 39 l35 -13 -25 -10 c-67 -26 -70 -26 -70 7 0 34 7 36 60 16z m190 -21 c22 -15 39 -28 37 -30 -1 -2 -33 6 -71 18 -46 14 -64 23 -54 29 23 15 47 10 88 -17z m-463 -204 c56 -107 99 -198 95 -201 -6 -6 -249 -99 -258 -99 -2 0 -4 110 -4 244 0 224 1 245 18 249 9 3 24 4 32 3 8 -1 59 -86 117 -196z m456 163 c64 -21 117 -40 117 -43 0 -17 -95 -120 -106 -116 -22 9 -243 151 -244 157 0 5 83 36 105 38 6 1 63 -15 128 -36z m867 -132 l0 -159 -42 -17 c-41 -16 -42 -16 -57 4 -35 46 -143 232 -139 237 5 4 225 92 236 94 1 0 2 -72 2 -159z m-475 89 l89 -59 -44 -19 c-86 -37 -82 -37 -179 23 -50 31 -91 58 -91 61 0 7 103 52 120 53 8 0 55 -26 105 -59z m-508 -57 c65 -42 120 -78 122 -79 4 -3 -31 -51 -107 -146 l-54 -68 -44 31 -44 30 0 154 c0 85 2 155 5 155 3 0 58 -35 122 -77z m239 -130 c-2 -2 -23 8 -45 23 -27 17 -38 31 -33 38 5 6 24 31 43 55 l34 43 3 -77 c2 -43 1 -79 -2 -82z m85 61 l19 -31 -40 -16 -40 -15 0 81 0 82 21 -35 c12 -19 30 -49 40 -66z m47 51 c34 -21 62 -41 62 -45 0 -4 -16 -12 -36 -18 l-35 -10 -35 53 c-19 30 -34 57 -34 60 0 7 -1 8 78 -40z m440 -102 c34 -56 62 -104 62 -107 0 -3 -16 -13 -36 -21 -35 -15 -39 -14 -83 11 -25 15 -65 40 -89 56 l-43 30 3 71 3 71 45 17 c52 19 43 28 138 -128z m-208 37 l0 -60 -60 37 -61 38 48 22 c71 32 73 31 73 -37z m-62 -43 l62 -39 0 -87 0 -88 -37 -11 c-20 -6 -38 -10 -39 -9 -13 13 -154 250 -151 253 10 10 83 31 92 26 6 -3 38 -23 73 -45z m-308 -180 l0 -159 -29 19 c-16 10 -72 45 -125 78 -56 35 -94 65 -91 73 2 6 39 54 80 106 l76 95 44 -27 44 -27 1 -158z m195 67 c43 -69 74 -129 69 -133 -9 -8 -221 -91 -232 -91 -4 0 -6 71 -4 158 l3 158 42 16 c23 8 43 16 44 17 0 0 36 -56 78 -125z m274 12 l72 -44 -68 -26 c-38 -14 -72 -26 -76 -26 -4 0 -7 32 -7 70 0 39 2 70 4 70 2 0 36 -20 75 -44z m481 -104 c96 -64 170 -117 164 -119 -6 -2 -86 -32 -178 -67 l-167 -64 -84 55 c-47 30 -83 58 -81 62 3 4 37 18 77 31 39 13 73 29 76 36 2 6 -16 45 -41 85 l-46 73 43 16 c23 9 47 14 52 11 6 -3 89 -56 185 -119z m-1255 42 l25 -16 -42 -54 c-24 -29 -46 -50 -49 -46 -12 12 -71 133 -67 136 1 2 17 8 33 13 31 11 33 10 100 -33z m1030 -72 c-4 -5 -135 80 -135 88 0 4 15 11 32 16 32 9 34 8 69 -46 20 -30 35 -56 34 -58z m-1131 -19 c24 -51 37 -64 112 -113 46 -30 84 -57 84 -60 0 -8 -149 -62 -159 -58 -20 7 -351 223 -351 229 0 3 57 28 128 56 l127 49 16 -23 c8 -12 28 -49 43 -80z m1051 45 c47 -29 85 -55 85 -58 0 -3 -35 -17 -78 -32 l-77 -27 -82 52 c-46 28 -83 55 -83 58 0 6 120 54 142 58 4 0 46 -23 93 -51z m-771 -70 c135 -88 134 -74 2 -120 l-61 -21 -82 54 c-46 30 -83 57 -83 62 0 15 85 114 95 109 6 -3 64 -41 129 -84z m596 0 l80 -53 -60 -22 c-107 -40 -101 -42 -144 32 -21 36 -37 68 -34 70 6 7 52 24 65 24 7 1 49 -23 93 -51z m-842 -382 c1 -86 0 -156 -3 -156 -4 0 -87 52 -186 116 l-179 117 0 158 0 158 183 -118 182 -118 3 -157z m704 326 c38 -62 38 -62 16 -71 -13 -5 -51 -21 -86 -35 l-63 -27 -84 53 c-46 29 -82 54 -81 56 11 11 225 90 240 89 12 -1 34 -26 58 -65z m798 -160 l0 -158 -172 -66 -173 -66 -3 155 c-1 86 0 158 2 160 5 6 328 131 339 132 4 1 7 -70 7 -157z m-468 90 l87 -58 -178 -68 -178 -68 -88 58 -88 59 64 29 c66 30 266 105 284 105 6 1 49 -25 97 -57z m-664 -86 l-3 -45 -78 50 c-43 28 -77 52 -75 54 2 2 37 17 78 33 l75 28 3 -38 c2 -20 2 -58 0 -82z m125 51 c26 -17 47 -33 47 -36 0 -6 -129 -61 -142 -61 -5 0 -8 37 -8 81 l0 81 28 -18 c15 -10 48 -31 75 -47z m-41 -96 c40 17 82 34 94 39 17 7 39 -3 109 -50 l87 -58 -84 -32 c-45 -18 -125 -48 -177 -66 l-93 -34 -62 38 c-165 105 -297 194 -293 198 2 3 37 17 78 33 l73 28 98 -63 97 -63 73 30z m678 -100 c0 -142 -2 -160 -17 -166 -57 -22 -334 -125 -338 -125 -3 0 -5 71 -5 158 l0 157 173 66 c94 37 175 67 180 68 4 0 7 -71 7 -158z m-913 -11 l163 -105 0 -158 0 -159 -29 19 c-16 10 -99 63 -185 118 l-156 100 0 159 0 158 23 -14 c12 -8 95 -61 184 -118z m526 -291 c-9 -8 -332 -129 -345 -129 -5 0 -7 71 -6 157 l3 157 175 65 175 66 3 -154 c1 -85 -1 -158 -5 -162z" style="paint-order: fill markers; stroke: rgb(220, 93, 214); fill: rgb(11, 138, 206);"/>
  </g>
</svg>