<?xml version="1.0" encoding="utf-8"?>
<svg version="1.1" width="229.000000pt" height="220.000000pt" preserveAspectRatio="xMidYMid meet"  id="Layer_1" xmlns="http://www.w3.org/2000/svg" xmlns:xlink="http://www.w3.org/1999/xlink" x="0px" y="0px"
	 viewBox="0 0 800 700.943" enable-background="new 0 0 1734 1647.943" xml:space="preserve">
    <defs>
        <clipPath id="clip0">
            <rect x="411" y="16" width="914" height="652" />
        </clipPath>
    </defs>
    <g clip-path="url(#clip0)" transform="translate(-411 -16)">
        <path
            d="M681 263.794C681.666 291.319 686.328 350.366 684.996 381 747.6 351.698 1122.17 113.845 1181 73 1114.62 100.082 754.926 233.604 681 263.794Z"
            fill="#D9D9D9" fill-rule="evenodd" />
        <path
            d="M712.097 251.374C712.454 257.048 711.99 277.403 717.929 286.337 721.288 294.108 726.116 300.851 731.25 304.083 736.384 307.316 736.291 320.827 742.734 320.231 749.623 317.705 763.572 316.81 767.903 314.675 769.239 311.428 761.545 293.762 756.75 290.583 751.955 287.405 746.618 283.234 743.135 276.106 739.652 268.977 736.641 248.844 736.852 242.727L712.097 251.374Z"
            fill="#88B6E0" fill-rule="evenodd" />
        <path
            d="M774.976 297.376C781.125 295.986 783.061 295.624 786.459 292.953 783.812 273.883 782.677 246.287 780.626 225.708 776.716 226.292 774.911 227.232 770.301 228.61 771.399 247.675 773.01 270.11 774.976 297.376Z"
            fill="#FFC000" fill-rule="evenodd" />
        <path
            d="M795.054 292.18C801.203 290.79 843.722 275.344 847.12 272.673 844.473 253.604 820.172 234.007 825.787 208.095 822.377 209.429 790.489 221.786 785.879 223.163 788.476 243.229 791.087 265.414 795.054 292.18Z"
            fill="#6DA945" fill-rule="evenodd" />
        <path
            d="M893.335 181.541C892.354 190.868 890.096 197.498 891.342 206.507 892.587 215.515 896.881 227.45 900.81 235.591 904.738 243.732 912.565 251.15 914.913 255.352 907.977 251.846 911.356 261.534 898.241 253.182 883.717 231.146 884.119 222.592 880.796 210.029 871.311 208.888 860.966 208.616 853.333 209 851.923 223.106 856.055 235 858 251 856.722 253.334 849.5 257.167 847.667 251.333 843.833 240.833 842.646 219.134 843.666 208.333 838.409 208.533 826.006 208.645 825.787 207.529 833.476 205.336 840.773 201.901 849.02 198.971 860.563 198.629 870.369 199.621 879.633 198.552 880.51 194.693 880.919 192.133 880.729 186.916 884.992 185.207 889.626 182.725 893.335 181.541Z"
            fill="#FFFFFF" fill-rule="evenodd" />
        <path
            d="M960.539 157.709C959.686 165.809 957.763 171.666 958.815 179.094 959.866 186.521 961.827 192.902 966.848 202.272 971.869 211.643 987.054 231.595 988.939 235.319 983.318 232.08 973.088 226.825 962.473 219.201 956.689 209.686 951.172 192.175 948.544 181.142 940.491 180.989 910.969 179.697 904.573 178.5 911.51 176.409 912.733 175.325 919.666 173.093 929.055 173.103 940.377 173.547 947.918 172.862 948.654 169.523 949.002 166.554 948.879 162.004 952.356 160.628 957.516 158.643 960.539 157.709Z"
            fill="#FFFFFF" fill-rule="evenodd" />
        <path
            d="M907.831 222.795C900.279 218.35 898.707 192.119 900.925 186 908.87 187.111 931.612 189.046 940.849 188.552 942.758 197.442 951.743 206.963 946.24 212.67 940.737 218.377 915.384 227.24 907.831 222.795Z"
            fill="#6DA945" fill-rule="evenodd" />
        <path
            d="M969.4 210.002C973.473 208.626 974.752 208.253 977.083 205.965 976.16 190.762 974.8 168.562 974.329 152.121 972.1 152.333 971.503 153.724 968.435 155.025 968.347 170.291 969.267 188.188 969.4 210.002Z"
            fill="#FFC000" fill-rule="evenodd" />
        <path
            d="M682.531 292.283C691.135 296.143 702.129 308.034 711.65 312.418 721.172 316.801 726.793 317.04 729.66 320.584 732.528 324.129 731.592 324.974 728.856 333.685 706.672 326.949 698.142 324.486 683.246 314.098 682.903 309.221 682.54 296.434 682.531 292.283Z"
            fill="#FFFFFF" fill-rule="evenodd" />
        <path
            d="M996.703 132.393C995.315 136.366 990.094 149.294 990.754 156.85 990.372 162.985 991.053 168.77 992.871 172.224 994.69 175.678 990.886 184.913 994.461 186.06 998.809 185.993 1006.44 188.747 1009.32 188.33 1010.93 186.428 1011.77 172.465 1010.12 169.13 1008.46 165.795 1006.8 161.649 1006.94 155.924 1007.07 150.198 1011.4 136.432 1012.15 131.809L996.703 132.393Z"
            fill="#88B6E0" fill-rule="evenodd" />
        <path
            d="M1057.67 116.408C1057.06 121.811 1055.71 125.656 1056.42 130.869 1057.14 136.081 1059.65 142.98 1061.96 147.684 1064.27 152.387 1068.89 156.661 1070.27 159.088 1066.17 157.076 1068.15 162.677 1060.39 157.876 1051.84 145.155 1052.1 140.201 1050.16 132.936 1044.54 132.3 1038.4 132.17 1033.88 132.413 1033 140.584 1035.42 147.46 1036.53 156.719 1035.77 158.073 1031.48 160.311 1030.41 156.939 1028.16 150.869 1027.51 138.308 1028.15 132.052 1025.03 132.181 1017.67 132.279 1017.55 131.634 1022.11 130.343 1026.45 128.336 1031.35 126.617 1038.19 126.389 1044 126.937 1049.5 126.294 1050.03 124.057 1050.28 122.574 1050.18 119.554 1052.71 118.553 1055.47 117.104 1057.67 116.408Z"
            fill="#FFFFFF" fill-rule="evenodd" />
        <path
            d="M1101.83 103.361C1101.46 108.575 1100.47 112.327 1101.16 117.133 1101.85 121.94 1103.04 126.084 1105.99 132.2 1108.94 138.316 1117.74 151.401 1118.85 153.83 1115.65 151.661 1109.84 148.128 1103.78 143.06 1100.4 136.84 1097.05 125.465 1095.43 118.311 1090.9 118.099 1074.32 116.851 1070.71 115.99 1074.58 114.738 1075.25 114.055 1079.11 112.713 1084.38 112.851 1090.74 113.296 1094.96 112.96 1095.32 110.816 1095.48 108.906 1095.34 105.968 1097.28 105.129 1100.14 103.921 1101.83 103.361Z"
            fill="#FFFFFF" fill-rule="evenodd" />
        <path
            d="M681 265C681.665 292.712 686.323 352.159 684.993 383 747.543 353.5 795.232 318.86 860 279.75 811.646 273.492 742.219 268.129 681 265Z"
            fill="#000000" fill-rule="evenodd" fill-opacity="0.25098" />
        <path
            d="M681 263.794C681.667 291.319 686.339 350.366 685.004 381 747.733 351.698 1123.05 113.845 1182 73 1115.49 100.082 755.074 233.604 681 263.794Z"
            fill="#000000" fill-rule="evenodd" fill-opacity="0.239216" />
        <path
            d="M729.98 310.001C721.984 324.862 703.325 350.06 686 382 748.635 352.722 1124.14 113.812 1183 73 1117.92 104.052 802.985 274.288 729.98 310.001Z"
            fill="#BFBFBF" fill-rule="evenodd" />
        <path
            d="M577 182.616C649.143 168 1132.17 82.9589 1187 71 1144.6 90.9315 779.445 227.573 680.886 265 652.917 245.29 614.071 210.521 577 182.616Z"
            fill="#DCDCDC" fill-rule="evenodd" />
        <path
            d="M685.411 162.75C680.89 174.681 673.933 197.208 678.483 212.25 683.032 227.292 703.86 250.667 712.708 253 720.722 250 728.986 247.5 737 244.5 733.244 240.75 710.858 221.542 705.863 207.583 700.868 193.625 705.376 170.694 706.531 159L685.411 162.75Z"
            fill="#5B9BD5" fill-rule="evenodd" />
        <path
            d="M621.487 173.511C624.77 172.869 630.064 172.507 635.413 171 634.394 176.273 633.517 192.734 637.281 205.401 641.046 218.068 656.415 242.424 658 247 651.688 242.285 640.069 234.431 628.45 223.815 622.62 208.512 617.326 185.899 621.487 173.511Z"
            fill="#FFFFFF" fill-rule="evenodd" />
        <path
            d="M723 195C723 183.954 734.641 175 749 175 763.359 175 775 183.954 775 195 775 206.046 763.359 215 749 215 734.641 215 723 206.046 723 195Z"
            stroke="#FFC000" stroke-width="8" stroke-miterlimit="8" fill="none" fill-rule="evenodd" />
        <path
            d="M632 227.521C636.289 231.527 640.244 234.348 643.698 237 661.524 229.496 705.559 214.008 725 206.702 724.053 203.373 724.582 203.175 722.076 199 703.86 204.981 656.789 218.099 632 227.521Z"
            fill="#FFC000" fill-rule="evenodd" />
        <path
            d="M770.002 231.019C773.987 229.274 777.648 228.345 780.415 227.188 777.543 224.551 771.955 217.604 767.693 211.6 764.678 213.195 764.38 212.718 760.868 216.007 770.352 232.583 767.608 227.054 770.002 231.019Z"
            fill="#FFC000" fill-rule="evenodd" />
        <path
            d="M785.877 225C781.774 219.918 779.723 216.961 778 213.754 780.462 210.796 783.046 207.089 784.892 203.757 786.738 200.424 783.908 195.384 789.077 193.76 794.246 192.135 810.41 193.552 815.908 194.01 821.405 194.468 821.692 194.426 822.062 196.509 822.431 198.592 818.779 203.798 826 209.505 816.482 213.712 794.82 221.418 785.877 225Z"
            fill="#83BC5C" fill-rule="evenodd" />
        <path
            d="M866.621 166.498C878.099 161.754 879.865 169.332 872.868 174.582 865.872 179.832 828.638 195.152 824.64 198 833.303 199.847 837.745 199.861 848.296 201.75L826.306 210C822.199 207.272 812.154 205.692 804 203.05 810.886 194.633 855.143 171.243 866.621 166.498Z"
            fill="#FFFFFF" fill-rule="evenodd" />
        <path
            d="M918 175.546C911.106 177.537 908.497 178.544 904.662 179.922 894.159 176.761 892.991 173.587 882.654 173.762 885.322 177.504 888.101 181.084 893.325 183.894L880.654 189C876.544 186.347 871.826 171.517 866 166.679 872.891 158.493 905.221 171.285 918 175.546Z"
            fill="#FFFFFF" fill-rule="evenodd" />
        <path
            d="M960 159.517C953.136 161.556 951.867 162.589 948.049 164 938.519 158.77 923.517 148.975 914.524 146.069 905.532 143.162 862.678 139.26 838 134.361 845.03 133.346 841.78 133.692 847.645 133 871.1 136.111 901.899 137.706 918.01 142.333 934.122 146.96 954.952 156.819 960 159.517Z"
            fill="#FFFFFF" fill-rule="evenodd" />
        <path
            d="M926.966 129.572C926.114 133.786 926.046 130.33 925.107 133.244 938.724 140.068 953.614 148.522 968.074 156.358 971.009 155.323 971.605 155.609 974.017 154.302 960.853 146.572 945.907 140.395 926.966 129.572Z"
            fill="#FFC000" fill-rule="evenodd" />
        <path
            d="M1010.97 140.251C1008.25 137.034 995.731 123.47 990.188 119.437 984.646 115.403 969.478 112.733 962.878 112.133 956.694 113.366 949.488 115.089 942.086 116.339 946.133 118.829 969.277 123.506 978.045 129.799 986.813 136.092 989.873 144.187 992.36 146.596 998.062 144.731 1004.51 142.616 1010.97 140.251Z"
            fill="#88B6E0" fill-rule="evenodd" />
        <path
            d="M1101.85 87.4537C1105.18 87.019 1103.32 87.0603 1106 87 1104.48 90.1475 1095.8 103.502 1094.45 104.365 1097.38 104.924 1098.87 104.929 1102.43 105.501L1095.02 108C1093.63 107.174 1089.75 106.695 1087 105.895 1089.32 103.345 1099.26 91.0964 1101.85 87.4537Z"
            fill="#FFFFFF" fill-rule="evenodd" />
        <path
            d="M871.131 165.187C866.251 162.963 852.285 165.019 842.861 160.655 833.438 156.29 821.154 145.001 814.592 139 812.32 139.797 809.207 139.671 805 140.511 808.618 145.379 823.005 159.689 832.26 165.187 844.292 172.699 865.662 174 872.141 174 878.619 174 876.011 167.411 871.131 165.187Z"
            fill="#FFFFFF" fill-rule="evenodd" />
        <path
            d="M771 182.012C775.278 185.95 774.222 186.393 777.667 189 795.444 181.624 982.611 113.577 1002 106.395 1000.81 105.868 1000.5 105.841 997 106.479L771 182.012Z"
            fill="#FFC000" fill-rule="evenodd" />
        <path
            d="M771 181.993C775.271 185.941 774.217 186.386 777.657 189 795.408 181.604 929.123 132.637 948.483 125.435 947.539 122.154 998.407 111.115 995.911 107L771 181.993Z"
            fill="#FFC000" fill-rule="evenodd" />
        <path
            d="M723 193.5C723 183.283 734.641 175 749 175 763.359 175 775 183.283 775 193.5 775 203.717 763.359 212 749 212 734.641 212 723 203.717 723 193.5Z"
            stroke="#FFC000" stroke-width="8" stroke-miterlimit="8" fill="none" fill-rule="evenodd" />
        <path
            d="M1093.72 102.832C1091.9 104.492 1093.15 104.248 1091.23 106.371 1087.31 105.915 1080.79 106.235 1075.49 104.328 1070.19 102.421 1062.96 99.6141 1059.44 94.9263 1063.88 93.7083 1062.06 94.7403 1064.99 93.7723 1068.19 96.8911 1072.87 98.9351 1077.66 100.445 1082.44 101.955 1091.87 102.053 1093.72 102.832Z"
            fill="#FFFFFF" fill-rule="evenodd" />
        <path
            d="M995.001 106.308C994.862 113.757 1006.88 124.622 1013.95 128.57 1021.01 132.518 1030.39 130.614 1037.4 129.998 1043.41 127.87 1042.04 128.234 1050 124.874 1048.94 120.001 1039.71 108.857 1034.31 99 1024.57 100.4 1004.9 104.656 995.001 106.308Z"
            fill="#83BC5C" fill-rule="evenodd" />
        <path
            d="M1079 115.128C1075.26 116.183 1073.09 117.216 1071.01 117.945 1065.31 116.271 1056.41 116.835 1050.8 116.928 1052.25 118.91 1053.76 120.806 1056.59 122.295L1049.72 125C1047.48 123.594 1035.66 105.26 1034 99.7023 1036.71 98.945 1036.98 99.2418 1040.18 99 1041.34 102.334 1042.44 108.288 1048.2 111.225 1054.4 111.551 1075.2 114.008 1079 115.128Z"
            fill="#FFFFFF" fill-rule="evenodd" />
        <path
            d="M989 107.655C993.144 106.985 991.37 107.363 996.11 106 1001.1 111.743 1008.22 124.027 1015.71 127.901 1023.19 131.776 1034.36 128.059 1041 129.248L1027.16 134.445C1022.52 134.582 1015.27 136.563 1008.91 132.098 1002.55 127.633 990.804 111.37 989 107.655Z"
            fill="#FFFFFF" fill-rule="evenodd" />
        <path d="M0 124.773 455.935 0 53.9082 323.348C39.3204 273.659 15.366 184.791 0 124.773Z"
            fill="#DCDCDC" fill-rule="evenodd"
            transform="matrix(0.397701 -0.917515 -0.917515 -0.397701 1004.7 488.531)" />
        <path
            d="M38.269 0.178124C33.9076 5.68784 9.69962 32.044 7.52121 43.0381 3.78152 41.3127 4.27982 42.3989 0 40.3587 5.58155 25.7108 24.6793 9.43634 30.5082 0 32.9864 0.338067 35.9324 0.687122 38.269 0.178124Z"
            fill="#FFFFFF" fill-rule="evenodd"
            transform="matrix(-0.876205 0.481939 0.481939 0.876205 1102 113.368)" />
        <path
            d="M944.934 369.664C933.526 364.04 889.02 357.545 867.851 346.173 846.682 334.801 835.048 310.525 817.92 301.432 800.791 292.339 772.258 293.427 765.08 291.615 755.642 296.293 747.949 301.161 739.236 305.265 744.281 306.9 785.484 315.533 801.031 326.684 816.578 337.835 813.973 359.078 832.517 372.173 851.062 385.268 900.449 401.615 915.296 405.586 925.731 393.168 934.499 382.083 944.934 369.664Z"
            fill="#5B9BD5" fill-rule="evenodd" />
        <path
            d="M29.7369 125.48C40.0816 99.3046 62.978 40.6056 69.1804 24.8457L87.9372 0C89.873 0.393238 90.4579 8.15038 83.6012 30.0997 76.7446 52.0491 56.8859 97.9323 46.7973 131.696 36.7087 165.46 19.7678 210.206 23.0694 232.684L0.0210935 214.682C-0.739781 195.775 19.3921 151.656 29.7369 125.48Z"
            fill="#FFFFFF" fill-rule="evenodd"
            transform="matrix(-0.248041 -0.96875 -0.96875 0.248041 1051.58 348.029)" />
        <path
            d="M827.422 259C842.51 264.021 996.863 256.963 1031 260.631 1025.93 267.593 1021.35 272.282 1016.03 280 975.693 274.906 834.619 278.87 810 268.359 819.826 263.275 819.878 263.233 827.422 259Z"
            fill="#FFFFFF" fill-rule="evenodd" />
        <path
            d="M769.534 343.587C775.988 348.17 781.351 351.624 787.254 356.582 806.259 343.927 1144.46 105.46 1165.4 92.5638 1168.23 88.5279 1167.07 90.7594 1169.58 87.8459 1149.75 99.0354 796.209 327.034 769.534 343.587Z"
            fill="#FFC000" fill-rule="evenodd" />
        <path
            d="M950.999 361.825C957.002 354.305 962.114 348.623 967.15 341.319 945.028 331.558 824.296 284.184 801.2 272.72 794.997 275.965 794.87 276.152 789.337 279.403 809.96 290.951 921.425 347.306 950.999 361.825Z"
            fill="#FFC000" fill-rule="evenodd" />
        <path
            d="M1027.53 199.261C1022.81 203.442 961.998 244.464 960.308 248.442 998.316 249.376 1012.3 245.338 1040.37 249.249 1042.71 246.437 1067.95 214.494 1071.33 211.066 1046.63 209.485 1038.65 203.054 1027.53 199.261Z"
            fill="#83BC5C" fill-rule="evenodd" />
        <path
            d="M999.475 169C1010.29 171.997 1058.27 195.198 1086 192.202 1082.36 196.358 1079.34 200.392 1075.52 205 1046.86 204.922 1009.65 179.134 992 172.859 999.044 169.082 994.569 171.527 999.475 169Z"
            fill="#FFFFFF" fill-rule="evenodd" />
        <path
            d="M854.559 263.36C861.013 267.942 859.543 266.064 867.78 266.689 902.385 249.182 941.656 213.676 963.594 187.17 958.093 189.801 952.762 193.199 948.602 194.619 921.104 218.809 884.901 246.807 854.559 263.36Z"
            fill="#FFFFFF" fill-rule="evenodd" />
        <path
            d="M1073.02 154.133C1077.18 157.579 1094.84 169.812 1101.97 173 1104.32 169.726 1104.53 169.898 1106 167.572 1100.92 164.729 1082.55 154.564 1077.05 152.324 1071.56 150.084 1068.87 150.687 1073.02 154.133Z"
            fill="#FFC000" fill-rule="evenodd" />
        <path
            d="M1087.06 133.475C1086.45 135.895 1090.51 136.797 1092.48 135.198 1094.46 133.598 1093.63 127.858 1098.89 123.88 1104.15 119.903 1119.02 115.146 1124.03 111.333 1129.04 107.52 1129.12 102.189 1128.96 101 1125.34 102.517 1125.67 102.148 1123.78 103.46 1123.13 105.511 1125.06 107.602 1120.58 110.349 1116.1 113.096 1101.77 116.828 1096.18 120.682 1090.6 124.536 1087.68 131.056 1087.06 133.475Z"
            fill="#FFFFFF" fill-rule="evenodd" />
        <path
            d="M1025.95 172.901C1031.93 170.923 1074.34 143.251 1077.46 140.264 1069.91 137.063 1070.14 137.249 1062.56 134.906 1059.3 136.564 1012.83 162.61 1008.37 164.427 1019.44 169.299 1018.89 168.691 1025.95 172.901Z"
            fill="#83BC5C" fill-rule="evenodd" />
        <path
            d="M677.5 384.5C643.764 403.978 624.633 424.078 605.324 454.539 586.014 485.001 573.319 539.276 561.645 567.269 549.971 595.263 546.499 604.597 535.278 622.5 542.114 591.016 548.839 557.019 545.665 528.581 542.491 500.143 529.751 481.577 516.235 475.885 502.719 470.192 475.22 479.709 464.566 494.428 453.913 509.148 440.019 543.322 452.315 564.201 464.611 585.079 500.097 581.836 512.773 565.268 525.448 548.7 515.695 509.996 502.8 509.618 489.905 509.24 483.323 516.549 486.539 527.78"
            stroke="#5B9BD5" stroke-width="13.3333" stroke-linecap="round" stroke-miterlimit="8"
            stroke-dasharray="26.6667 26.6667" fill="none" fill-rule="evenodd" />
    </g>
</svg>